<svg version="1.1" xmlns="http://www.w3.org/2000/svg" xmlns:xlink="http://www.w3.org/1999/xlink" xmlns:xml="http://www.w3.org/XML/1998/namespace"><polyline id="lona_cs" points="268,2192 1865,3396" stroke="yellow" /><polygon fill="green" id="main_area_0" points="588,1820 -245,2653 -411,3153 -1411,3153 -2411,2486 -3078,2486 -4078,1486 -4411,1486 -6578,-679 -6911,-1679 -8078,-2846 -12078,-4846 -12745,-4846 -13245,-4346 -13245,-3013 -14078,-1846 -15411,-1179 -15745,-1513 -17078,-1513 -17578,-2346 -17578,-4679 -17078,-5513 -16411,-5513 -15911,-6013 -15911,-6346 -18078,-8179 -18411,-8179 -19245,-9013 -19245,-9679 -19745,-9846 -20911,-11013 -22245,-13679 -22911,-14346 -22911,-15013 -23578,-15679 -23578,-16346 -24245,-17346 -24245,-18013 -25245,-19013 -25245,-19679 -25578,-20346 -26578,-21346 -26578,-21679 -27078,-22179 -27411,-22179 -29411,-24179 -30745,-24846 -31578,-23679 -32411,-22846 -33078,-22846 -33245,-22346 -33911,-21679 -34578,-20346 -34578,-19679 -34245,-19346 -34578,-18346 -35078,-17846 -35745,-17846 -37245,-16013 -37245,-15013 -36911,-14679 -37245,-14346 -37245,-13679 -37911,-13013 -38078,-12513 -38745,-12513 -39578,-11679 -41245,-8346 -40245,-7013 -38411,-5179 -38078,-5179 -37578,-4679 -37578,-4013 -37078,-3513 -36745,-3513 -35411,-2179 -35078,-2179 -33745,-846 -33411,-846 -28078,4153 -27745,4153 -26745,5153 -25745,5486 -24745,6486 -24078,6486 -23078,7153 -22411,7153 -21745,7820 -21078,7820 -19078,8820 -17411,8820 -17078,8486 -15745,8486 -14411,9486 -13745,9486 -13078,9820 -11745,11153 -11411,11153 -7745,14820 -7411,14820 -6745,15486 -4745,16486 -4078,16486 -3745,16820 -2745,16820 -1411,15486 -911,15320 254,13820 588,13820 1421,12986 1421,12653 2421,11653 2421,11320 4254,9486 5588,9486 5921,9153 7588,9153 8088,8653 8088,7986 9421,6653 10088,5320 10088,4653 10754,3986 10754,3320 11421,1986 12088,1320 12088,653 12754,-13 13088,-1013 13754,-1679 14421,-3013 14754,-4679 15754,-5679 15754,-6346 16754,-7679 17088,-8346 17088,-9013 17754,-9679 18421,-11346 19088,-12013 19421,-12679 19421,-13346 20421,-15346 21088,-16013 21754,-17679 22421,-18346 22421,-19013 23754,-20679 23754,-21013 24421,-21679 24421,-22346 25421,-23346 26421,-25346 27421,-26346 27754,-27346 29088,-29013 29088,-29013 29088,-30013 28254,-30846 26588,-31513 25254,-32513 23588,-32846 22254,-33846 21588,-33846 20921,-34513 19588,-35179 18921,-35179 17921,-36179 16921,-36513 15921,-37513 13588,-38513 12254,-39513 10754,-39346 10088,-38013 10088,-37346 8754,-35679 8421,-34679 7421,-33679 6088,-30679 4921,-29179 3921,-29179 1921,-30846 1588,-30846 921,-30179 -411,-30179 -1578,-31679 -1578,-32679 -3078,-33846 -4245,-34346 -4578,-35013 -4578,-35679 -4245,-36013 -4245,-36679 -4578,-37013 -4578,-38013 -2578,-40013 -2245,-41013 -1745,-41179 -78,-42846 421,-43013 754,-44013 1421,-44679 1421,-45346 588,-46179 -411,-46513 -1078,-47179 -1745,-47179 -2411,-47513 -4078,-48846 -4745,-49179 -5411,-49179 -6078,-49846 -8078,-50846 -9078,-50846 -10078,-51513 -10745,-51513 -11078,-51846 -12078,-51846 -12411,-52179 -15078,-52179 -16078,-51513 -16745,-51513 -17578,-50679 -17578,-50346 -18245,-50013 -18245,-49679 -18911,-49013 -19578,-47679 -19578,-46679 -19245,-46346 -19578,-45346 -20411,-45179 -22245,-43346 -22245,-42346 -22578,-42013 -22245,-41346 -22578,-40679 -23411,-39846 -24245,-39679 -24245,-39346 -24911,-38679 -25578,-37346 -25578,-35679 -27578,-34013 -28245,-32679 -28245,-32013 -28578,-31679 -28245,-31346 -28245,-29013 -27745,-28179 -27078,-28179 -24745,-26846 -24078,-27179 -23745,-26846 -21411,-26846 -21078,-26513 -19411,-26513 -19078,-26179 -18411,-26513 -14745,-26513 -14411,-26846 -12745,-26846 -12411,-26513 -12078,-26846 -8745,-26846 -8411,-26513 -7745,-26846 -7078,-26846 -5745,-26179 -5078,-25513 -4745,-25513 -3911,-24679 -3911,-24346 -2578,-23013 -1578,-21013 -1578,-20346 -745,-19513 588,-18846 1254,-18846 1588,-18513 3921,-18513 4254,-18179 4921,-18179 6254,-17179 7254,-16846 7921,-16179 10921,-14846 11754,-13679 11754,-12346 10754,-11346 10088,-10013 10088,-9346 8754,-7679 8754,-7013 8088,-6346 8088,-5679 6754,-4013 6088,-2679 6088,-679 5421,653 3254,2820 2254,2153" stroke="green" title="Working area 0" /><polygon fill="red" id="island_1" points="-8745,-30513 -9745,-29513 -12745,-29513 -13245,-30013 -13911,-31346 -13578,-31679 -13578,-32346 -12411,-33846 -11745,-34179 -10078,-34179 -9745,-33513 -8578,-32679 -8578,-30679 -8745,-30513" stroke="red" title="Island 1" /><polygon fill="red" id="island_2" points="15254,-25846 14588,-25513 13754,-26013 13421,-26679 14588,-28179 15421,-27013 15254,-25846" stroke="red" title="Island 2" /><polyline id="guide_1" points="268,2192 421,2320 1421,3653 1421,3986 588,4820 -78,5153 -4745,5153 -5078,4820 -7411,4820 -7745,4486 -8745,4486 -10078,3820 -10411,4153 -10745,3820 -12411,3820 -12745,3486 -14078,3486 -14411,3153 -15078,3153 -15411,2820 -16078,2820 -16411,2486 -17078,2486 -17745,2153 -19911,-13 -20578,-1346 -20911,-3013 -22245,-5679 -22245,-6346 -22578,-6679 -22578,-7346 -23578,-9346 -23578,-10013 -23911,-10679 -25245,-12346 -26245,-14679 -26911,-15346 -27245,-16346 -27911,-17013 -28578,-18346 -29245,-19013 -29578,-20013 -30578,-21013 -30578,-21346 -31911,-23013" stroke="blue" stroke-width="500" /><polyline id="guide_2" points="268,2192 754,2320 1588,3153 1921,3153 2588,3820 3588,3820 3921,4153 4921,3820 6421,2320 6421,1986 7088,1320 7088,653 8754,-1013 8754,-1679 9088,-2013 9088,-2679 9421,-3346 10088,-4013 10754,-5679 11421,-6346 11754,-7013 11754,-7679 12421,-8346 12754,-9346 13421,-10013 13421,-10679 13754,-11346 15088,-13013 15088,-16346 14754,-16679 15088,-17346 12921,-19846 11588,-20513 9921,-21846 8254,-22513 7588,-23179 6588,-23513 5921,-24179 5254,-24179 3921,-24846 3254,-25513 -78,-27179 -1745,-28846 -2078,-28846 -3078,-29846 -3411,-29846 -3578,-30346 -4745,-31513 -5078,-31513 -7411,-33846 -7745,-33846 -9411,-35513 -9745,-35513 -13745,-39179 -14078,-39179 -15078,-40179 -16078,-40513 -16745,-41179 -18411,-41846 -19078,-42513 -19745,-42513 -21411,-43846" stroke="blue" stroke-width="500" /></svg>